<?xml version="1.0" encoding="UTF-8" standalone="no"?>
<!DOCTYPE svg PUBLIC "-//W3C//DTD SVG 1.1//EN"
 "http://www.w3.org/Graphics/SVG/1.1/DTD/svg11.dtd">
<!-- Generated by graphviz version 8.1.0 (20230707.0739)
 -->
<!-- Title: G Pages: 1 -->
<svg width="1120pt" height="1257pt"
 viewBox="0.00 0.00 1119.79 1257.15" xmlns="http://www.w3.org/2000/svg" xmlns:xlink="http://www.w3.org/1999/xlink">
<g id="graph0" class="graph" transform="scale(1 1) rotate(0) translate(4 1253.15)">
<title>G</title><style>.edge>path:hover{stroke-width:8}</style>
<polygon fill="white" stroke="none" points="-4,4 -4,-1253.15 1115.79,-1253.15 1115.79,4 -4,4"/>
<!-- components -->
<g id="node1" class="node">
<title>components</title><style>.edge>path:hover{stroke-width:8}</style>
<ellipse fill="#b34c4c" stroke="black" cx="670.81" cy="-127" rx="41.64" ry="18"/>
<text text-anchor="middle" x="670.81" y="-123.5" font-family="Helvetica,sans-Serif" font-size="10.00" fill="#ffffff">components</text>
</g>
<!-- demo_py -->
<g id="node2" class="node">
<title>demo_py</title><style>.edge>path:hover{stroke-width:8}</style>
<ellipse fill="#569f56" stroke="black" cx="740.81" cy="-18" rx="32.17" ry="18"/>
<text text-anchor="middle" x="740.81" y="-14.5" font-family="Helvetica,sans-Serif" font-size="10.00" fill="#000000">demo.py</text>
</g>
<!-- components&#45;&gt;demo_py -->
<g id="edge1" class="edge">
<title>components&#45;&gt;demo_py</title><style>.edge>path:hover{stroke-width:8}</style>
<path fill="none" stroke="black" d="M700.56,-114.14C716.99,-105.59 735.19,-92.16 740.81,-73"/>
<path fill="none" stroke="black" d="M740.81,-72C743.14,-64.08 743.83,-55.2 743.75,-47.01"/>
<polygon fill="#b34c4c" stroke="black" points="747.2,-46.87 743.22,-37.06 740.21,-47.21 747.2,-46.87"/>
</g>
<!-- ezsgame -->
<g id="node3" class="node">
<title>ezsgame</title><style>.edge>path:hover{stroke-width:8}</style>
<ellipse fill="#030395" stroke="black" cx="705.81" cy="-199" rx="33.52" ry="18"/>
<text text-anchor="middle" x="705.81" y="-195.5" font-family="Helvetica,sans-Serif" font-size="10.00" fill="#ffffff">ezsgame</text>
</g>
<!-- ezsgame&#45;&gt;components -->
<g id="edge2" class="edge">
<title>ezsgame&#45;&gt;components</title><style>.edge>path:hover{stroke-width:8}</style>
<path fill="none" stroke="black" d="M697.52,-181.41C693.52,-173.42 688.63,-163.64 684.13,-154.64"/>
<polygon fill="#030395" stroke="black" points="686.89,-153.34 679.29,-145.96 680.63,-156.47 686.89,-153.34"/>
</g>
<!-- ezsgame&#45;&gt;demo_py -->
<g id="edge3" class="edge">
<title>ezsgame&#45;&gt;demo_py</title><style>.edge>path:hover{stroke-width:8}</style>
<path fill="none" stroke="black" d="M711.15,-180.86C714.34,-170.5 718.41,-157.02 721.81,-145 730.82,-113.15 731.49,-104.76 740.81,-73"/>
</g>
<!-- ezsgame_camera -->
<g id="node4" class="node">
<title>ezsgame_camera</title><style>.edge>path:hover{stroke-width:8}</style>
<ellipse fill="#4c4cb3" stroke="black" cx="714.81" cy="-920.78" rx="54.72" ry="18"/>
<text text-anchor="middle" x="714.81" y="-917.28" font-family="Helvetica,sans-Serif" font-size="10.00" fill="#ffffff">ezsgame.camera</text>
</g>
<!-- ezsgame_camera&#45;&gt;ezsgame -->
<g id="edge4" class="edge">
<title>ezsgame_camera&#45;&gt;ezsgame</title><style>.edge>path:hover{stroke-width:8}</style>
<path fill="none" stroke="black" d="M708.03,-902.56C688.3,-850.73 632.44,-691.25 635.81,-554.33"/>
</g>
<!-- ezsgame_components -->
<g id="node5" class="node">
<title>ezsgame_components</title><style>.edge>path:hover{stroke-width:8}</style>
<ellipse fill="#2f2fdb" stroke="black" cx="519.81" cy="-1010.52" rx="48.97" ry="22.63"/>
<text text-anchor="middle" x="519.81" y="-1013.02" font-family="Helvetica,sans-Serif" font-size="10.00" fill="#ffffff">ezsgame.</text>
<text text-anchor="middle" x="519.81" y="-1001.02" font-family="Helvetica,sans-Serif" font-size="10.00" fill="#ffffff">components</text>
</g>
<!-- ezsgame_components&#45;&gt;ezsgame -->
<g id="edge5" class="edge">
<title>ezsgame_components&#45;&gt;ezsgame</title><style>.edge>path:hover{stroke-width:8}</style>
<path fill="none" stroke="black" d="M635.81,-552.33C645.04,-470.2 627.18,-448.57 635.81,-366.37"/>
<path fill="none" stroke="black" d="M593.81,-633.59C599.28,-594.1 631.14,-593.92 635.81,-554.33"/>
</g>
<!-- ezsgame_graphics_image -->
<g id="node10" class="node">
<title>ezsgame_graphics_image</title><style>.edge>path:hover{stroke-width:8}</style>
<ellipse fill="#3535a1" stroke="black" cx="565.81" cy="-463.59" rx="41.54" ry="31.11"/>
<text text-anchor="middle" x="565.81" y="-472.09" font-family="Helvetica,sans-Serif" font-size="10.00" fill="#ffffff">ezsgame.</text>
<text text-anchor="middle" x="565.81" y="-460.09" font-family="Helvetica,sans-Serif" font-size="10.00" fill="#ffffff">graphics.</text>
<text text-anchor="middle" x="565.81" y="-448.09" font-family="Helvetica,sans-Serif" font-size="10.00" fill="#ffffff">image</text>
</g>
<!-- ezsgame_components&#45;&gt;ezsgame_graphics_image -->
<g id="edge6" class="edge">
<title>ezsgame_components&#45;&gt;ezsgame_graphics_image</title><style>.edge>path:hover{stroke-width:8}</style>
<path fill="none" stroke="black" d="M593.81,-633.59C598.25,-598.64 595.3,-589.53 593.81,-554.33"/>
<path fill="none" stroke="black" d="M542.23,-990.17C552.51,-979.91 563.74,-966.44 569.81,-951.89 624.09,-821.77 576.03,-775.45 593.81,-635.59"/>
</g>
<!-- ezsgame_objects_object -->
<g id="node16" class="node">
<title>ezsgame_objects_object</title><style>.edge>path:hover{stroke-width:8}</style>
<ellipse fill="#0a0ac2" stroke="black" cx="295.81" cy="-822.55" rx="41.54" ry="31.11"/>
<text text-anchor="middle" x="295.81" y="-831.05" font-family="Helvetica,sans-Serif" font-size="10.00" fill="#ffffff">ezsgame.</text>
<text text-anchor="middle" x="295.81" y="-819.05" font-family="Helvetica,sans-Serif" font-size="10.00" fill="#ffffff">objects.</text>
<text text-anchor="middle" x="295.81" y="-807.05" font-family="Helvetica,sans-Serif" font-size="10.00" fill="#ffffff">object</text>
</g>
<!-- ezsgame_components&#45;&gt;ezsgame_objects_object -->
<g id="edge7" class="edge">
<title>ezsgame_components&#45;&gt;ezsgame_objects_object</title><style>.edge>path:hover{stroke-width:8}</style>
<path fill="none" stroke="black" d="M496.68,-990.32C457.54,-957.82 377.97,-891.76 331.58,-853.25"/>
<polygon fill="#2f2fdb" stroke="black" points="334.26,-850.09 324.33,-846.4 329.79,-855.48 334.26,-850.09"/>
</g>
<!-- ezsgame_objects_text -->
<g id="node17" class="node">
<title>ezsgame_objects_text</title><style>.edge>path:hover{stroke-width:8}</style>
<ellipse fill="#3535a1" stroke="black" cx="447.81" cy="-724.33" rx="41.54" ry="31.11"/>
<text text-anchor="middle" x="447.81" y="-732.83" font-family="Helvetica,sans-Serif" font-size="10.00" fill="#ffffff">ezsgame.</text>
<text text-anchor="middle" x="447.81" y="-720.83" font-family="Helvetica,sans-Serif" font-size="10.00" fill="#ffffff">objects.</text>
<text text-anchor="middle" x="447.81" y="-708.83" font-family="Helvetica,sans-Serif" font-size="10.00" fill="#ffffff">text</text>
</g>
<!-- ezsgame_components&#45;&gt;ezsgame_objects_text -->
<g id="edge8" class="edge">
<title>ezsgame_components&#45;&gt;ezsgame_objects_text</title><style>.edge>path:hover{stroke-width:8}</style>
<path fill="none" stroke="black" d="M504.34,-988.73C493.18,-971.66 480.02,-946.39 479.81,-921.78"/>
</g>
<!-- ezsgame_event_handler -->
<g id="node6" class="node">
<title>ezsgame_event_handler</title><style>.edge>path:hover{stroke-width:8}</style>
<ellipse fill="#3131c4" stroke="black" cx="436.81" cy="-553.33" rx="53.21" ry="22.63"/>
<text text-anchor="middle" x="436.81" y="-555.83" font-family="Helvetica,sans-Serif" font-size="10.00" fill="#ffffff">ezsgame.</text>
<text text-anchor="middle" x="436.81" y="-543.83" font-family="Helvetica,sans-Serif" font-size="10.00" fill="#ffffff">event_handler</text>
</g>
<!-- ezsgame_event_handler&#45;&gt;ezsgame -->
<g id="edge9" class="edge">
<title>ezsgame_event_handler&#45;&gt;ezsgame</title><style>.edge>path:hover{stroke-width:8}</style>
<path fill="none" stroke="black" d="M393.81,-462.59C398.21,-416.99 360.96,-412 356.81,-366.37"/>
<path fill="none" stroke="black" d="M418.76,-531.66C405.95,-514.66 391.42,-489.41 393.81,-464.59"/>
</g>
<!-- ezsgame_utilities_controller -->
<g id="node23" class="node">
<title>ezsgame_utilities_controller</title><style>.edge>path:hover{stroke-width:8}</style>
<ellipse fill="#3d3db8" stroke="black" cx="426.81" cy="-365.37" rx="41.54" ry="31.11"/>
<text text-anchor="middle" x="426.81" y="-373.87" font-family="Helvetica,sans-Serif" font-size="10.00" fill="#ffffff">ezsgame.</text>
<text text-anchor="middle" x="426.81" y="-361.87" font-family="Helvetica,sans-Serif" font-size="10.00" fill="#ffffff">utilities.</text>
<text text-anchor="middle" x="426.81" y="-349.87" font-family="Helvetica,sans-Serif" font-size="10.00" fill="#ffffff">controller</text>
</g>
<!-- ezsgame_event_handler&#45;&gt;ezsgame_utilities_controller -->
<g id="edge10" class="edge">
<title>ezsgame_event_handler&#45;&gt;ezsgame_utilities_controller</title><style>.edge>path:hover{stroke-width:8}</style>
<path fill="none" stroke="black" d="M393.81,-462.59C395.29,-442.87 401.79,-421.98 408.64,-404.72"/>
<polygon fill="#3131c4" stroke="black" points="412.07,-406.6 412.67,-396.02 405.6,-403.91 412.07,-406.6"/>
</g>
<!-- ezsgame_window -->
<g id="node26" class="node">
<title>ezsgame_window</title><style>.edge>path:hover{stroke-width:8}</style>
<ellipse fill="#3d3d8f" stroke="black" cx="869.81" cy="-275.63" rx="54.27" ry="18"/>
<text text-anchor="middle" x="869.81" y="-272.13" font-family="Helvetica,sans-Serif" font-size="10.00" fill="#ffffff">ezsgame.window</text>
</g>
<!-- ezsgame_event_handler&#45;&gt;ezsgame_window -->
<g id="edge11" class="edge">
<title>ezsgame_event_handler&#45;&gt;ezsgame_window</title><style>.edge>path:hover{stroke-width:8}</style>
<path fill="none" stroke="black" d="M393.81,-462.59C400.33,-375.52 502.81,-439.46 578.81,-396.48 616.81,-374.99 615.97,-354.18 654.81,-334.25 682.53,-320.03 760.63,-300.86 814.65,-288.62"/>
<polygon fill="#3131c4" stroke="black" points="815.12,-291.88 824.11,-286.27 813.58,-285.05 815.12,-291.88"/>
</g>
<!-- ezsgame_funcs -->
<g id="node7" class="node">
<title>ezsgame_funcs</title><style>.edge>path:hover{stroke-width:8}</style>
<ellipse fill="#2f2fbc" stroke="black" cx="136.81" cy="-1010.52" rx="49.31" ry="18"/>
<text text-anchor="middle" x="136.81" y="-1007.02" font-family="Helvetica,sans-Serif" font-size="10.00" fill="#ffffff">ezsgame.funcs</text>
</g>
<!-- ezsgame_funcs&#45;&gt;ezsgame -->
<g id="edge12" class="edge">
<title>ezsgame_funcs&#45;&gt;ezsgame</title><style>.edge>path:hover{stroke-width:8}</style>
<path fill="none" stroke="black" d="M97.81,-821.55C105.1,-779.41 68.25,-756.23 97.81,-725.33"/>
<path fill="none" stroke="black" d="M97.81,-919.78C105.88,-877.78 90.53,-865.7 97.81,-823.55"/>
<path fill="none" stroke="black" d="M122.59,-993.13C109.48,-976.04 92.75,-948.14 97.81,-921.78"/>
</g>
<!-- ezsgame_objects_groups -->
<g id="node15" class="node">
<title>ezsgame_objects_groups</title><style>.edge>path:hover{stroke-width:8}</style>
<ellipse fill="#3838a8" stroke="black" cx="167.81" cy="-724.33" rx="41.54" ry="31.11"/>
<text text-anchor="middle" x="167.81" y="-732.83" font-family="Helvetica,sans-Serif" font-size="10.00" fill="#ffffff">ezsgame.</text>
<text text-anchor="middle" x="167.81" y="-720.83" font-family="Helvetica,sans-Serif" font-size="10.00" fill="#ffffff">objects.</text>
<text text-anchor="middle" x="167.81" y="-708.83" font-family="Helvetica,sans-Serif" font-size="10.00" fill="#ffffff">groups</text>
</g>
<!-- ezsgame_funcs&#45;&gt;ezsgame_objects_groups -->
<g id="edge13" class="edge">
<title>ezsgame_funcs&#45;&gt;ezsgame_objects_groups</title><style>.edge>path:hover{stroke-width:8}</style>
<path fill="none" stroke="black" d="M97.81,-821.55C102.14,-796.49 118.51,-773.27 134.32,-755.92"/>
<polygon fill="#2f2fbc" stroke="black" points="136.14,-759.04 140.5,-749.38 131.07,-754.21 136.14,-759.04"/>
</g>
<!-- ezsgame_funcs&#45;&gt;ezsgame_objects_object -->
<g id="edge14" class="edge">
<title>ezsgame_funcs&#45;&gt;ezsgame_objects_object</title><style>.edge>path:hover{stroke-width:8}</style>
<path fill="none" stroke="black" d="M97.81,-919.78C109.74,-857.63 189.08,-835.62 243.63,-827.83"/>
<polygon fill="#2f2fbc" stroke="black" points="244.06,-831.17 253.53,-826.41 243.16,-824.23 244.06,-831.17"/>
</g>
<!-- ezsgame_graphics -->
<g id="node8" class="node">
<title>ezsgame_graphics</title><style>.edge>path:hover{stroke-width:8}</style>
<ellipse fill="#3d3db8" stroke="black" cx="705.81" cy="-365.37" rx="41.54" ry="22.63"/>
<text text-anchor="middle" x="705.81" y="-367.87" font-family="Helvetica,sans-Serif" font-size="10.00" fill="#ffffff">ezsgame.</text>
<text text-anchor="middle" x="705.81" y="-355.87" font-family="Helvetica,sans-Serif" font-size="10.00" fill="#ffffff">graphics</text>
</g>
<!-- ezsgame_graphics&#45;&gt;ezsgame -->
<g id="edge15" class="edge">
<title>ezsgame_graphics&#45;&gt;ezsgame</title><style>.edge>path:hover{stroke-width:8}</style>
<path fill="none" stroke="black" d="M674.75,-349.79C646.24,-334.15 610.33,-307.37 623.81,-276.63"/>
</g>
<!-- ezsgame_graphics&#45;&gt;ezsgame_window -->
<g id="edge16" class="edge">
<title>ezsgame_graphics&#45;&gt;ezsgame_window</title><style>.edge>path:hover{stroke-width:8}</style>
<path fill="none" stroke="black" d="M734.75,-348.88C761.93,-334.34 802.75,-312.51 832.39,-296.65"/>
<polygon fill="#3d3db8" stroke="black" points="833.81,-299.32 840.98,-291.52 830.51,-293.15 833.81,-299.32"/>
</g>
<!-- ezsgame_graphics__future_tiles -->
<g id="node9" class="node">
<title>ezsgame_graphics__future_tiles</title><style>.edge>path:hover{stroke-width:8}</style>
<ellipse fill="#4949ac" stroke="black" cx="1021.81" cy="-920.78" rx="48.44" ry="31.11"/>
<text text-anchor="middle" x="1021.81" y="-929.28" font-family="Helvetica,sans-Serif" font-size="10.00" fill="#ffffff">ezsgame.</text>
<text text-anchor="middle" x="1021.81" y="-917.28" font-family="Helvetica,sans-Serif" font-size="10.00" fill="#ffffff">graphics.</text>
<text text-anchor="middle" x="1021.81" y="-905.28" font-family="Helvetica,sans-Serif" font-size="10.00" fill="#ffffff">_future_tiles</text>
</g>
<!-- ezsgame_graphics__future_tiles&#45;&gt;ezsgame -->
<g id="edge17" class="edge">
<title>ezsgame_graphics__future_tiles&#45;&gt;ezsgame</title><style>.edge>path:hover{stroke-width:8}</style>
<path fill="none" stroke="black" d="M1051.52,-896.08C1070.44,-878.51 1092.38,-852.64 1097.81,-823.55"/>
<path fill="none" stroke="black" d="M1097.81,-821.55C1112.98,-740.31 1065.6,-711.71 1097.81,-635.59"/>
</g>
<!-- ezsgame_graphics_image&#45;&gt;ezsgame -->
<g id="edge18" class="edge">
<title>ezsgame_graphics_image&#45;&gt;ezsgame</title><style>.edge>path:hover{stroke-width:8}</style>
<path fill="none" stroke="black" d="M635.81,-364.37C639.92,-325.22 608,-312.67 623.81,-276.63"/>
<path fill="none" stroke="black" d="M593.27,-439.7C611.54,-421.96 632.75,-395.54 635.81,-366.37"/>
</g>
<!-- ezsgame_graphics_image&#45;&gt;ezsgame_graphics -->
<g id="edge19" class="edge">
<title>ezsgame_graphics_image&#45;&gt;ezsgame_graphics</title><style>.edge>path:hover{stroke-width:8}</style>
<path fill="none" stroke="black" d="M595.85,-441.95C618.12,-426.64 648.51,-405.75 671.7,-389.82"/>
<polygon fill="#3535a1" stroke="black" points="673.25,-392.3 679.51,-383.76 669.29,-386.54 673.25,-392.3"/>
</g>
<!-- ezsgame_graphics_sprites -->
<g id="node11" class="node">
<title>ezsgame_graphics_sprites</title><style>.edge>path:hover{stroke-width:8}</style>
<ellipse fill="#3a3ab0" stroke="black" cx="891.81" cy="-463.59" rx="41.54" ry="31.11"/>
<text text-anchor="middle" x="891.81" y="-472.09" font-family="Helvetica,sans-Serif" font-size="10.00" fill="#ffffff">ezsgame.</text>
<text text-anchor="middle" x="891.81" y="-460.09" font-family="Helvetica,sans-Serif" font-size="10.00" fill="#ffffff">graphics.</text>
<text text-anchor="middle" x="891.81" y="-448.09" font-family="Helvetica,sans-Serif" font-size="10.00" fill="#ffffff">sprites</text>
</g>
<!-- ezsgame_graphics_sprites&#45;&gt;ezsgame -->
<g id="edge20" class="edge">
<title>ezsgame_graphics_sprites&#45;&gt;ezsgame</title><style>.edge>path:hover{stroke-width:8}</style>
<path fill="none" stroke="black" d="M932.44,-456.25C973.09,-448.2 1035.63,-430.97 1078.81,-396.48 1091.18,-386.61 1091.58,-380.91 1097.81,-366.37"/>
<path fill="none" stroke="black" d="M1097.81,-364.37C1113.16,-328.52 1108.79,-314.04 1097.81,-276.63"/>
</g>
<!-- ezsgame_graphics_sprites&#45;&gt;ezsgame_graphics -->
<g id="edge21" class="edge">
<title>ezsgame_graphics_sprites&#45;&gt;ezsgame_graphics</title><style>.edge>path:hover{stroke-width:8}</style>
<path fill="none" stroke="black" d="M858.13,-445.17C826.21,-428.65 778.29,-403.86 744.75,-386.51"/>
<polygon fill="#3a3ab0" stroke="black" points="746.75,-383.09 736.26,-381.6 743.54,-389.31 746.75,-383.09"/>
</g>
<!-- ezsgame_mouse -->
<g id="node12" class="node">
<title>ezsgame_mouse</title><style>.edge>path:hover{stroke-width:8}</style>
<ellipse fill="#4646a4" stroke="black" cx="940.81" cy="-1010.52" rx="52.92" ry="18"/>
<text text-anchor="middle" x="940.81" y="-1007.02" font-family="Helvetica,sans-Serif" font-size="10.00" fill="#ffffff">ezsgame.mouse</text>
</g>
<!-- ezsgame_mouse&#45;&gt;ezsgame -->
<g id="edge22" class="edge">
<title>ezsgame_mouse&#45;&gt;ezsgame</title><style>.edge>path:hover{stroke-width:8}</style>
<path fill="none" stroke="black" d="M1097.81,-633.59C1144.82,-524.52 1051.06,-475.54 1097.81,-366.37"/>
<path fill="none" stroke="black" d="M935.76,-992.44C929.61,-968.81 921.27,-925.06 931.81,-889.67 970.3,-760.39 1036.22,-755.59 1097.81,-635.59"/>
</g>
<!-- ezsgame_objects -->
<g id="node13" class="node">
<title>ezsgame_objects</title><style>.edge>path:hover{stroke-width:8}</style>
<ellipse fill="#0b0bd6" stroke="black" cx="307.81" cy="-634.59" rx="41.54" ry="22.63"/>
<text text-anchor="middle" x="307.81" y="-637.09" font-family="Helvetica,sans-Serif" font-size="10.00" fill="#ffffff">ezsgame.</text>
<text text-anchor="middle" x="307.81" y="-625.09" font-family="Helvetica,sans-Serif" font-size="10.00" fill="#ffffff">objects</text>
</g>
<!-- ezsgame_objects&#45;&gt;ezsgame -->
<g id="edge23" class="edge">
<title>ezsgame_objects&#45;&gt;ezsgame</title><style>.edge>path:hover{stroke-width:8}</style>
<path fill="none" stroke="black" d="M324.31,-613.54C335.68,-598.34 349.79,-576.37 355.81,-554.33"/>
</g>
<!-- ezsgame_objects&#45;&gt;ezsgame_event_handler -->
<g id="edge24" class="edge">
<title>ezsgame_objects&#45;&gt;ezsgame_event_handler</title><style>.edge>path:hover{stroke-width:8}</style>
<path fill="none" stroke="black" d="M334.85,-616.97C353.1,-605.77 377.45,-590.8 397.79,-578.31"/>
<polygon fill="#0b0bd6" stroke="black" points="399.42,-580.8 406.1,-572.58 395.75,-574.84 399.42,-580.8"/>
</g>
<!-- ezsgame_objects&#45;&gt;ezsgame_graphics_image -->
<g id="edge25" class="edge">
<title>ezsgame_objects&#45;&gt;ezsgame_graphics_image</title><style>.edge>path:hover{stroke-width:8}</style>
<path fill="none" stroke="black" d="M345.06,-623.9C397.08,-610.13 486.51,-585.53 498.81,-575.96 522.65,-557.41 539.88,-527.81 550.89,-503.78"/>
<polygon fill="#0b0bd6" stroke="black" points="554.43,-505.44 555.23,-494.88 548.02,-502.63 554.43,-505.44"/>
</g>
<!-- ezsgame_objects_geometric -->
<g id="node14" class="node">
<title>ezsgame_objects_geometric</title><style>.edge>path:hover{stroke-width:8}</style>
<ellipse fill="#3838a8" stroke="black" cx="307.81" cy="-724.33" rx="41.54" ry="31.11"/>
<text text-anchor="middle" x="307.81" y="-732.83" font-family="Helvetica,sans-Serif" font-size="10.00" fill="#ffffff">ezsgame.</text>
<text text-anchor="middle" x="307.81" y="-720.83" font-family="Helvetica,sans-Serif" font-size="10.00" fill="#ffffff">objects.</text>
<text text-anchor="middle" x="307.81" y="-708.83" font-family="Helvetica,sans-Serif" font-size="10.00" fill="#ffffff">geometric</text>
</g>
<!-- ezsgame_objects_geometric&#45;&gt;ezsgame -->
<g id="edge26" class="edge">
<title>ezsgame_objects_geometric&#45;&gt;ezsgame</title><style>.edge>path:hover{stroke-width:8}</style>
<path fill="none" stroke="black" d="M275.22,-704.36C248.87,-686.61 219,-659.34 237.81,-635.59"/>
</g>
<!-- ezsgame_objects_geometric&#45;&gt;ezsgame_objects -->
<g id="edge27" class="edge">
<title>ezsgame_objects_geometric&#45;&gt;ezsgame_objects</title><style>.edge>path:hover{stroke-width:8}</style>
<path fill="none" stroke="black" d="M307.81,-693.13C307.81,-685.18 307.81,-676.56 307.81,-668.48"/>
<polygon fill="#3838a8" stroke="black" points="311.31,-668.53 307.81,-658.53 304.31,-668.53 311.31,-668.53"/>
</g>
<!-- ezsgame_objects_groups&#45;&gt;ezsgame -->
<g id="edge28" class="edge">
<title>ezsgame_objects_groups&#45;&gt;ezsgame</title><style>.edge>path:hover{stroke-width:8}</style>
<path fill="none" stroke="black" d="M188.69,-697.26C202.63,-679.83 221.36,-656.36 237.81,-635.59"/>
</g>
<!-- ezsgame_objects_groups&#45;&gt;ezsgame_objects -->
<g id="edge29" class="edge">
<title>ezsgame_objects_groups&#45;&gt;ezsgame_objects</title><style>.edge>path:hover{stroke-width:8}</style>
<path fill="none" stroke="black" d="M199.23,-703.64C220.82,-690.11 249.52,-672.12 271.99,-658.04"/>
<polygon fill="#3838a8" stroke="black" points="273.59,-660.54 280.2,-652.26 269.87,-654.61 273.59,-660.54"/>
</g>
<!-- ezsgame_objects_object&#45;&gt;ezsgame -->
<g id="edge30" class="edge">
<title>ezsgame_objects_object&#45;&gt;ezsgame</title><style>.edge>path:hover{stroke-width:8}</style>
<path fill="none" stroke="black" d="M274.25,-795.7C244.79,-757.07 199.7,-683.71 237.81,-635.59"/>
</g>
<!-- ezsgame_objects_object&#45;&gt;ezsgame_graphics_image -->
<g id="edge31" class="edge">
<title>ezsgame_objects_object&#45;&gt;ezsgame_graphics_image</title><style>.edge>path:hover{stroke-width:8}</style>
<path fill="none" stroke="black" d="M593.81,-552.33C595.64,-535.67 591.28,-517.95 585.49,-502.82"/>
<polygon fill="#0a0ac2" stroke="black" points="588.39,-501.69 581.31,-493.81 581.93,-504.39 588.39,-501.69"/>
<path fill="none" stroke="black" d="M377.81,-723.33C409.1,-605.52 580.5,-675.49 593.81,-554.33"/>
</g>
<!-- ezsgame_objects_object&#45;&gt;ezsgame_objects -->
<g id="edge32" class="edge">
<title>ezsgame_objects_object&#45;&gt;ezsgame_objects</title><style>.edge>path:hover{stroke-width:8}</style>
<path fill="none" stroke="black" d="M377.81,-723.33C384.64,-697.62 364.28,-674.38 343.79,-658.29"/>
<polygon fill="#0a0ac2" stroke="black" points="346.2,-654.98 336.08,-651.84 342.04,-660.61 346.2,-654.98"/>
<path fill="none" stroke="black" d="M324.51,-799.96C344.77,-782.5 369.7,-755.88 377.81,-725.33"/>
</g>
<!-- ezsgame_objects_object&#45;&gt;ezsgame_objects_geometric -->
<g id="edge33" class="edge">
<title>ezsgame_objects_object&#45;&gt;ezsgame_objects_geometric</title><style>.edge>path:hover{stroke-width:8}</style>
<path fill="none" stroke="black" d="M299.61,-791.11C300.59,-783.22 301.67,-774.6 302.71,-766.27"/>
<polygon fill="#0a0ac2" stroke="black" points="306.27,-766.93 304.04,-756.58 299.33,-766.07 306.27,-766.93"/>
</g>
<!-- ezsgame_objects_object&#45;&gt;ezsgame_objects_groups -->
<g id="edge34" class="edge">
<title>ezsgame_objects_object&#45;&gt;ezsgame_objects_groups</title><style>.edge>path:hover{stroke-width:8}</style>
<path fill="none" stroke="black" d="M266.77,-799.72C248.6,-786.06 225.01,-768.33 205.43,-753.61"/>
<polygon fill="#0a0ac2" stroke="black" points="207.84,-750.29 197.74,-747.08 203.63,-755.88 207.84,-750.29"/>
</g>
<!-- ezsgame_objects_object&#45;&gt;ezsgame_objects_text -->
<g id="edge35" class="edge">
<title>ezsgame_objects_object&#45;&gt;ezsgame_objects_text</title><style>.edge>path:hover{stroke-width:8}</style>
<path fill="none" stroke="black" d="M327.31,-801.62C350.44,-786.97 382.06,-766.95 407.11,-751.09"/>
<polygon fill="#0a0ac2" stroke="black" points="408.78,-753.55 415.36,-745.24 405.04,-747.63 408.78,-753.55"/>
</g>
<!-- ezsgame_objects_text&#45;&gt;ezsgame -->
<g id="edge36" class="edge">
<title>ezsgame_objects_text&#45;&gt;ezsgame</title><style>.edge>path:hover{stroke-width:8}</style>
<path fill="none" stroke="black" d="M421.1,-699.95C388.77,-668.66 340.44,-610.56 355.81,-554.33"/>
</g>
<!-- ezsgame_objects_text&#45;&gt;ezsgame_objects -->
<g id="edge37" class="edge">
<title>ezsgame_objects_text&#45;&gt;ezsgame_objects</title><style>.edge>path:hover{stroke-width:8}</style>
<path fill="none" stroke="black" d="M416.39,-703.64C394.81,-690.11 366.1,-672.12 343.63,-658.04"/>
<polygon fill="#3535a1" stroke="black" points="345.75,-654.61 335.42,-652.26 342.03,-660.54 345.75,-654.61"/>
</g>
<!-- ezsgame_scenes -->
<g id="node18" class="node">
<title>ezsgame_scenes</title><style>.edge>path:hover{stroke-width:8}</style>
<ellipse fill="#4040c0" stroke="black" cx="895.81" cy="-365.37" rx="54.27" ry="18"/>
<text text-anchor="middle" x="895.81" y="-361.87" font-family="Helvetica,sans-Serif" font-size="10.00" fill="#ffffff">ezsgame.scenes</text>
</g>
<!-- ezsgame_scenes&#45;&gt;ezsgame -->
<g id="edge38" class="edge">
<title>ezsgame_scenes&#45;&gt;ezsgame</title><style>.edge>path:hover{stroke-width:8}</style>
<path fill="none" stroke="black" d="M1097.81,-274.63C1078.25,-207.98 848.83,-199.95 750.31,-199.61"/>
<polygon fill="#4040c0" stroke="black" points="750.52,-196.1 740.52,-199.6 750.51,-203.1 750.52,-196.1"/>
<path fill="none" stroke="black" d="M925.15,-349.95C935.7,-344.87 947.74,-339.19 958.81,-334.25 1019.89,-307.02 1116.64,-340.8 1097.81,-276.63"/>
</g>
<!-- ezsgame_scenes&#45;&gt;ezsgame_window -->
<g id="edge39" class="edge">
<title>ezsgame_scenes&#45;&gt;ezsgame_window</title><style>.edge>path:hover{stroke-width:8}</style>
<path fill="none" stroke="black" d="M890.67,-347.03C887.08,-334.9 882.2,-318.42 878.06,-304.45"/>
<polygon fill="#4040c0" stroke="black" points="881.13,-303.52 874.94,-294.93 874.42,-305.51 881.13,-303.52"/>
</g>
<!-- ezsgame_sounds -->
<g id="node19" class="node">
<title>ezsgame_sounds</title><style>.edge>path:hover{stroke-width:8}</style>
<ellipse fill="#5353b6" stroke="black" cx="705.81" cy="-275.63" rx="54.27" ry="18"/>
<text text-anchor="middle" x="705.81" y="-272.13" font-family="Helvetica,sans-Serif" font-size="10.00" fill="#ffffff">ezsgame.sounds</text>
</g>
<!-- ezsgame_sounds&#45;&gt;ezsgame -->
<g id="edge40" class="edge">
<title>ezsgame_sounds&#45;&gt;ezsgame</title><style>.edge>path:hover{stroke-width:8}</style>
<path fill="none" stroke="black" d="M705.81,-257.32C705.81,-248.72 705.81,-238.1 705.81,-228.35"/>
<polygon fill="#5353b6" stroke="black" points="709.31,-228.47 705.81,-218.47 702.31,-228.47 709.31,-228.47"/>
</g>
<!-- ezsgame_time_handler -->
<g id="node20" class="node">
<title>ezsgame_time_handler</title><style>.edge>path:hover{stroke-width:8}</style>
<ellipse fill="#4747c2" stroke="black" cx="1018.81" cy="-365.37" rx="50.56" ry="22.63"/>
<text text-anchor="middle" x="1018.81" y="-367.87" font-family="Helvetica,sans-Serif" font-size="10.00" fill="#ffffff">ezsgame.</text>
<text text-anchor="middle" x="1018.81" y="-355.87" font-family="Helvetica,sans-Serif" font-size="10.00" fill="#ffffff">time_handler</text>
</g>
<!-- ezsgame_time_handler&#45;&gt;ezsgame -->
<g id="edge41" class="edge">
<title>ezsgame_time_handler&#45;&gt;ezsgame</title><style>.edge>path:hover{stroke-width:8}</style>
<path fill="none" stroke="black" d="M1051.18,-347.8C1076.7,-332.18 1106.64,-306.72 1097.81,-276.63"/>
</g>
<!-- ezsgame_time_handler&#45;&gt;ezsgame_window -->
<g id="edge42" class="edge">
<title>ezsgame_time_handler&#45;&gt;ezsgame_window</title><style>.edge>path:hover{stroke-width:8}</style>
<path fill="none" stroke="black" d="M989.02,-346.82C964.77,-332.54 930.49,-312.36 904.92,-297.3"/>
<polygon fill="#4747c2" stroke="black" points="906.97,-293.86 896.58,-291.8 903.42,-299.89 906.97,-293.86"/>
</g>
<!-- ezsgame_types -->
<g id="node21" class="node">
<title>ezsgame_types</title><style>.edge>path:hover{stroke-width:8}</style>
<ellipse fill="#1010f9" stroke="black" cx="327.81" cy="-1231.15" rx="49.76" ry="18"/>
<text text-anchor="middle" x="327.81" y="-1227.65" font-family="Helvetica,sans-Serif" font-size="10.00" fill="#ffffff">ezsgame.types</text>
</g>
<!-- ezsgame_types&#45;&gt;ezsgame -->
<g id="edge43" class="edge">
<title>ezsgame_types&#45;&gt;ezsgame</title><style>.edge>path:hover{stroke-width:8}</style>
<path fill="none" stroke="black" d="M1021.81,-1009.52C1036.61,-976.67 1062.71,-984.12 1078.81,-951.89 1104.59,-900.31 1088.67,-880.49 1097.81,-823.55"/>
</g>
<!-- ezsgame_types&#45;&gt;ezsgame_funcs -->
<g id="edge44" class="edge">
<title>ezsgame_types&#45;&gt;ezsgame_funcs</title><style>.edge>path:hover{stroke-width:8}</style>
<path fill="none" stroke="black" d="M97.81,-1086.15C97.87,-1068.33 106.71,-1050.56 115.96,-1036.84"/>
<polygon fill="#1010f9" stroke="black" points="119.31,-1039.18 122.33,-1029.03 113.63,-1035.08 119.31,-1039.18"/>
</g>
<!-- ezsgame_types&#45;&gt;ezsgame_graphics__future_tiles -->
<g id="edge45" class="edge">
<title>ezsgame_types&#45;&gt;ezsgame_graphics__future_tiles</title><style>.edge>path:hover{stroke-width:8}</style>
<path fill="none" stroke="black" d="M1021.81,-1009.52C1028.06,-995 1029.25,-977.82 1028.44,-962.54"/>
<polygon fill="#1010f9" stroke="black" points="1031.87,-962.48 1027.55,-952.81 1024.89,-963.07 1031.87,-962.48"/>
</g>
<!-- ezsgame_types&#45;&gt;ezsgame_graphics_image -->
<g id="edge46" class="edge">
<title>ezsgame_types&#45;&gt;ezsgame_graphics_image</title><style>.edge>path:hover{stroke-width:8}</style>
<path fill="none" stroke="black" d="M859.81,-919.78C854.56,-865 789.03,-739.85 759.81,-693.22 711.78,-616.55 639.55,-538.6 598.12,-496.46"/>
<polygon fill="#1010f9" stroke="black" points="601.03,-494.41 591.5,-489.76 596.05,-499.33 601.03,-494.41"/>
<path fill="none" stroke="black" d="M442.81,-1158.15C637.14,-1047.73 794.51,-1257.12 940.81,-1088.15"/>
<path fill="none" stroke="black" d="M940.81,-1086.15C964.54,-1058.74 896.71,-1064.67 878.81,-1033.15 854.03,-989.48 863.99,-971.82 859.81,-921.78"/>
</g>
<!-- ezsgame_types&#45;&gt;ezsgame_graphics_sprites -->
<g id="edge47" class="edge">
<title>ezsgame_types&#45;&gt;ezsgame_graphics_sprites</title><style>.edge>path:hover{stroke-width:8}</style>
<path fill="none" stroke="black" d="M859.81,-919.78C853.67,-877.46 852.14,-865.63 859.81,-823.55"/>
</g>
<!-- ezsgame_types&#45;&gt;ezsgame_mouse -->
<g id="edge48" class="edge">
<title>ezsgame_types&#45;&gt;ezsgame_mouse</title><style>.edge>path:hover{stroke-width:8}</style>
<path fill="none" stroke="black" d="M940.81,-1086.15C951.66,-1073.61 951.67,-1054.97 948.96,-1039.45"/>
<polygon fill="#1010f9" stroke="black" points="952.19,-1038.85 946.62,-1029.83 945.35,-1040.35 952.19,-1038.85"/>
</g>
<!-- ezsgame_types&#45;&gt;ezsgame_objects_geometric -->
<g id="edge49" class="edge">
<title>ezsgame_types&#45;&gt;ezsgame_objects_geometric</title><style>.edge>path:hover{stroke-width:8}</style>
<path fill="none" stroke="black" d="M97.81,-1086.15C97.89,-1061.12 83.1,-1057.8 78.81,-1033.15 66.73,-963.64 38.52,-848.86 83.81,-791.44 122.27,-742.68 159.37,-773.4 218.81,-755.44 232.5,-751.31 247.25,-746.47 260.73,-741.9"/>
<polygon fill="#1010f9" stroke="black" points="261.42,-745.02 269.75,-738.48 259.15,-738.4 261.42,-745.02"/>
<path fill="none" stroke="black" d="M97.81,-1158.15C73.9,-1138.24 96.09,-1119.21 97.81,-1088.15"/>
</g>
<!-- ezsgame_types&#45;&gt;ezsgame_objects_groups -->
<g id="edge50" class="edge">
<title>ezsgame_types&#45;&gt;ezsgame_objects_groups</title><style>.edge>path:hover{stroke-width:8}</style>
<path fill="none" stroke="black" d="M279.5,-1226.38C229.04,-1220.15 150.1,-1203.68 97.81,-1160.15"/>
<path fill="none" stroke="black" d="M97.81,-1158.15C41.4,-1111.18 21.81,-1084.92 21.81,-1011.52 21.81,-1011.52 21.81,-1011.52 21.81,-919.78 21.81,-860.66 21.03,-838.51 56.81,-791.44 61.7,-785.02 96.17,-764.92 125.42,-748.55"/>
<polygon fill="#1010f9" stroke="black" points="126.66,-751.32 133.69,-743.39 123.25,-745.2 126.66,-751.32"/>
</g>
<!-- ezsgame_types&#45;&gt;ezsgame_objects_object -->
<g id="edge51" class="edge">
<title>ezsgame_types&#45;&gt;ezsgame_objects_object</title><style>.edge>path:hover{stroke-width:8}</style>
<path fill="none" stroke="black" d="M365.81,-1086.15C346.96,-1054.05 342.64,-1045.66 327.81,-1011.52"/>
<path fill="none" stroke="black" d="M442.81,-1158.15C483.02,-1135.3 389.23,-1128.03 365.81,-1088.15"/>
<path fill="none" stroke="black" d="M351.79,-1214.97C374.88,-1200.5 410.91,-1178.27 442.81,-1160.15"/>
</g>
<!-- ezsgame_types&#45;&gt;ezsgame_objects_text -->
<g id="edge52" class="edge">
<title>ezsgame_types&#45;&gt;ezsgame_objects_text</title><style>.edge>path:hover{stroke-width:8}</style>
<path fill="none" stroke="black" d="M365.81,-1086.15C303.21,-979.54 381.07,-829.31 423.59,-761.29"/>
<polygon fill="#1010f9" stroke="black" points="426.92,-763.56 429.33,-753.25 421.01,-759.81 426.92,-763.56"/>
</g>
<!-- ezsgame_utils -->
<g id="node25" class="node">
<title>ezsgame_utils</title><style>.edge>path:hover{stroke-width:8}</style>
<ellipse fill="#3333cc" stroke="black" cx="327.81" cy="-1159.15" rx="46.15" ry="18"/>
<text text-anchor="middle" x="327.81" y="-1155.65" font-family="Helvetica,sans-Serif" font-size="10.00" fill="#ffffff">ezsgame.utils</text>
</g>
<!-- ezsgame_types&#45;&gt;ezsgame_utils -->
<g id="edge53" class="edge">
<title>ezsgame_types&#45;&gt;ezsgame_utils</title><style>.edge>path:hover{stroke-width:8}</style>
<path fill="none" stroke="black" d="M327.81,-1212.84C327.81,-1205.38 327.81,-1196.47 327.81,-1188.11"/>
<polygon fill="#1010f9" stroke="black" points="331.31,-1188.25 327.81,-1178.25 324.31,-1188.25 331.31,-1188.25"/>
</g>
<!-- ezsgame_types&#45;&gt;ezsgame_window -->
<g id="edge54" class="edge">
<title>ezsgame_types&#45;&gt;ezsgame_window</title><style>.edge>path:hover{stroke-width:8}</style>
<path fill="none" stroke="black" d="M940.81,-1086.15C973.73,-1049.92 1002.45,-1056.48 1021.81,-1011.52"/>
<path fill="none" stroke="black" d="M1021.81,-1009.52C1036.06,-976.43 979.74,-984.68 964.81,-951.89 869.04,-741.62 1082.35,-616.64 942.81,-432.48 903.9,-381.13 814.78,-430.78 813.81,-366.37"/>
</g>
<!-- ezsgame_world -->
<g id="node27" class="node">
<title>ezsgame_world</title><style>.edge>path:hover{stroke-width:8}</style>
<ellipse fill="#0606ef" stroke="black" cx="442.81" cy="-1087.15" rx="48.86" ry="18"/>
<text text-anchor="middle" x="442.81" y="-1083.65" font-family="Helvetica,sans-Serif" font-size="10.00" fill="#ffffff">ezsgame.world</text>
</g>
<!-- ezsgame_types&#45;&gt;ezsgame_world -->
<g id="edge55" class="edge">
<title>ezsgame_types&#45;&gt;ezsgame_world</title><style>.edge>path:hover{stroke-width:8}</style>
<path fill="none" stroke="black" d="M442.81,-1158.15C456.81,-1150.2 456.32,-1131.74 452.59,-1115.77"/>
<polygon fill="#1010f9" stroke="black" points="455.71,-1114.95 449.63,-1106.27 448.98,-1116.85 455.71,-1114.95"/>
</g>
<!-- ezsgame_utilities -->
<g id="node22" class="node">
<title>ezsgame_utilities</title><style>.edge>path:hover{stroke-width:8}</style>
<ellipse fill="#4949ac" stroke="black" cx="527.81" cy="-275.63" rx="41.54" ry="22.63"/>
<text text-anchor="middle" x="527.81" y="-278.13" font-family="Helvetica,sans-Serif" font-size="10.00" fill="#ffffff">ezsgame.</text>
<text text-anchor="middle" x="527.81" y="-266.13" font-family="Helvetica,sans-Serif" font-size="10.00" fill="#ffffff">utilities</text>
</g>
<!-- ezsgame_utilities&#45;&gt;ezsgame -->
<g id="edge56" class="edge">
<title>ezsgame_utilities&#45;&gt;ezsgame</title><style>.edge>path:hover{stroke-width:8}</style>
<path fill="none" stroke="black" d="M560.05,-261.11C591.05,-248.11 637.84,-228.5 670,-215.02"/>
<polygon fill="#4949ac" stroke="black" points="671.01,-217.96 678.88,-210.87 668.31,-211.51 671.01,-217.96"/>
</g>
<!-- ezsgame_utilities_controller&#45;&gt;ezsgame -->
<g id="edge57" class="edge">
<title>ezsgame_utilities_controller&#45;&gt;ezsgame</title><style>.edge>path:hover{stroke-width:8}</style>
<path fill="none" stroke="black" d="M394.62,-345.62C370.13,-328.78 342.84,-302.74 356.81,-276.63"/>
</g>
<!-- ezsgame_utilities_controller&#45;&gt;ezsgame_utilities -->
<g id="edge58" class="edge">
<title>ezsgame_utilities_controller&#45;&gt;ezsgame_utilities</title><style>.edge>path:hover{stroke-width:8}</style>
<path fill="none" stroke="black" d="M453.61,-341.09C467.39,-329.12 484.21,-314.51 498.35,-302.22"/>
<polygon fill="#3d3db8" stroke="black" points="500.07,-304.5 505.32,-295.3 495.48,-299.21 500.07,-304.5"/>
</g>
<!-- ezsgame_utilities_timer -->
<g id="node24" class="node">
<title>ezsgame_utilities_timer</title><style>.edge>path:hover{stroke-width:8}</style>
<ellipse fill="#4747c2" stroke="black" cx="527.81" cy="-365.37" rx="41.54" ry="31.11"/>
<text text-anchor="middle" x="527.81" y="-373.87" font-family="Helvetica,sans-Serif" font-size="10.00" fill="#ffffff">ezsgame.</text>
<text text-anchor="middle" x="527.81" y="-361.87" font-family="Helvetica,sans-Serif" font-size="10.00" fill="#ffffff">utilities.</text>
<text text-anchor="middle" x="527.81" y="-349.87" font-family="Helvetica,sans-Serif" font-size="10.00" fill="#ffffff">timer</text>
</g>
<!-- ezsgame_utilities_timer&#45;&gt;ezsgame -->
<g id="edge59" class="edge">
<title>ezsgame_utilities_timer&#45;&gt;ezsgame</title><style>.edge>path:hover{stroke-width:8}</style>
<path fill="none" stroke="black" d="M559.83,-345.46C582.41,-330.11 610.84,-306.2 623.81,-276.63"/>
<path fill="none" stroke="black" d="M623.81,-274.63C634.13,-251.1 655.97,-231.82 674.52,-218.76"/>
<polygon fill="#4747c2" stroke="black" points="676.22,-221.16 682.57,-212.68 672.32,-215.35 676.22,-221.16"/>
</g>
<!-- ezsgame_utilities_timer&#45;&gt;ezsgame_utilities -->
<g id="edge60" class="edge">
<title>ezsgame_utilities_timer&#45;&gt;ezsgame_utilities</title><style>.edge>path:hover{stroke-width:8}</style>
<path fill="none" stroke="black" d="M527.81,-334.17C527.81,-326.22 527.81,-317.6 527.81,-309.52"/>
<polygon fill="#4747c2" stroke="black" points="531.31,-309.57 527.81,-299.57 524.31,-309.57 531.31,-309.57"/>
</g>
<!-- ezsgame_utils&#45;&gt;ezsgame -->
<g id="edge61" class="edge">
<title>ezsgame_utils&#45;&gt;ezsgame</title><style>.edge>path:hover{stroke-width:8}</style>
<path fill="none" stroke="black" d="M356.81,-274.63C385.38,-221.25 573.73,-205.88 661.25,-201.59"/>
<polygon fill="#3333cc" stroke="black" points="661.33,-205.05 671.15,-201.09 661,-198.05 661.33,-205.05"/>
<path fill="none" stroke="black" d="M97.81,-723.33C108.75,-711.89 104.98,-703.72 116.81,-693.22 161.35,-653.66 200.72,-682.19 237.81,-635.59"/>
<path fill="none" stroke="black" d="M237.81,-633.59C245.78,-623.58 246.93,-620.09 256.81,-611.96 296.12,-579.61 341.87,-603.3 355.81,-554.33"/>
<path fill="none" stroke="black" d="M355.81,-552.33C378.44,-472.84 364.29,-448.68 356.81,-366.37"/>
<path fill="none" stroke="black" d="M289.04,-1148.9C234.36,-1133.88 135.02,-1099 78.81,-1033.15 7.16,-949.2 -23.94,-891.88 21.81,-791.44 40.37,-750.7 66.86,-757.68 97.81,-725.33"/>
<path fill="none" stroke="black" d="M356.81,-364.37C352.24,-325.64 338.41,-311.01 356.81,-276.63"/>
</g>
<!-- ezsgame_utils&#45;&gt;ezsgame_objects_object -->
<g id="edge62" class="edge">
<title>ezsgame_utils&#45;&gt;ezsgame_objects_object</title><style>.edge>path:hover{stroke-width:8}</style>
<path fill="none" stroke="black" d="M330.96,-1140.97C335.37,-1113.1 341.44,-1056.6 327.81,-1011.52"/>
<path fill="none" stroke="black" d="M327.81,-1009.52C312.48,-960.89 303.96,-902.66 299.64,-864.47"/>
<polygon fill="#3333cc" stroke="black" points="303.04,-864.34 298.48,-854.77 296.08,-865.09 303.04,-864.34"/>
</g>
<!-- ezsgame_utils&#45;&gt;ezsgame_world -->
<g id="edge63" class="edge">
<title>ezsgame_utils&#45;&gt;ezsgame_world</title><style>.edge>path:hover{stroke-width:8}</style>
<path fill="none" stroke="black" d="M351.92,-1143.47C368.52,-1133.37 390.81,-1119.8 409.15,-1108.63"/>
<polygon fill="#3333cc" stroke="black" points="410.62,-1111.23 417.34,-1103.04 406.98,-1105.25 410.62,-1111.23"/>
</g>
<!-- ezsgame_window&#45;&gt;ezsgame -->
<g id="edge64" class="edge">
<title>ezsgame_window&#45;&gt;ezsgame</title><style>.edge>path:hover{stroke-width:8}</style>
<path fill="none" stroke="black" d="M838.96,-260.59C810.99,-247.86 769.8,-229.12 740.65,-215.85"/>
<polygon fill="#3d3d8f" stroke="black" points="742.44,-212.37 731.89,-211.41 739.54,-218.74 742.44,-212.37"/>
</g>
<!-- ezsgame_world&#45;&gt;ezsgame -->
<g id="edge65" class="edge">
<title>ezsgame_world&#45;&gt;ezsgame</title><style>.edge>path:hover{stroke-width:8}</style>
<path fill="none" stroke="black" d="M631.81,-1009.52C699.49,-952.97 759.09,-993.94 809.81,-921.78"/>
<path fill="none" stroke="black" d="M745.81,-723.33C729.92,-665.91 767.82,-324.14 768.81,-298.25 769.58,-278.16 777.3,-271.23 768.81,-253 762.27,-238.96 749.98,-227.31 737.98,-218.54"/>
<polygon fill="#0606ef" stroke="black" points="740.19,-215.13 729.95,-212.4 736.26,-220.92 740.19,-215.13"/>
<path fill="none" stroke="black" d="M809.81,-919.78C835.29,-883.54 791.75,-867.14 783.81,-823.55"/>
<path fill="none" stroke="black" d="M783.81,-821.55C775.57,-776.32 753.75,-770.62 745.81,-725.33"/>
</g>
<!-- ezsgame_world&#45;&gt;ezsgame_camera -->
<g id="edge66" class="edge">
<title>ezsgame_world&#45;&gt;ezsgame_camera</title><style>.edge>path:hover{stroke-width:8}</style>
<path fill="none" stroke="black" d="M631.81,-1009.52C652.81,-988.6 675.92,-964.03 692.41,-946.22"/>
<polygon fill="#0606ef" stroke="black" points="694.28,-949.27 698.49,-939.55 689.14,-944.53 694.28,-949.27"/>
</g>
<!-- ezsgame_world&#45;&gt;ezsgame_event_handler -->
<g id="edge67" class="edge">
<title>ezsgame_world&#45;&gt;ezsgame_event_handler</title><style>.edge>path:hover{stroke-width:8}</style>
<path fill="none" stroke="black" d="M486.94,-1079.09C529.19,-1070.19 592.2,-1050.99 631.81,-1011.52"/>
<path fill="none" stroke="black" d="M631.81,-1009.52C666.15,-975.3 517.81,-872.03 517.81,-823.55 517.81,-823.55 517.81,-823.55 517.81,-723.33 517.81,-669.95 484.54,-615.57 460.64,-583.41"/>
<polygon fill="#0606ef" stroke="black" points="463.04,-581.77 454.19,-575.94 457.47,-586.02 463.04,-581.77"/>
</g>
<!-- ezsgame_world&#45;&gt;ezsgame_funcs -->
<g id="edge68" class="edge">
<title>ezsgame_world&#45;&gt;ezsgame_funcs</title><style>.edge>path:hover{stroke-width:8}</style>
<path fill="none" stroke="black" d="M404.55,-1075.62C396.4,-1073.43 387.83,-1071.18 379.81,-1069.15 313.97,-1052.46 237.72,-1034.62 188.45,-1023.28"/>
<polygon fill="#0606ef" stroke="black" points="189.28,-1019.65 178.75,-1020.82 187.71,-1026.47 189.28,-1019.65"/>
</g>
<!-- ezsgame_world&#45;&gt;ezsgame_graphics_image -->
<g id="edge69" class="edge">
<title>ezsgame_world&#45;&gt;ezsgame_graphics_image</title><style>.edge>path:hover{stroke-width:8}</style>
<path fill="none" stroke="black" d="M631.81,-1009.52C663.23,-982.67 631.81,-864.88 631.81,-823.55 631.81,-823.55 631.81,-823.55 631.81,-723.33 631.81,-672.7 619.12,-661.31 607.81,-611.96 601.92,-586.27 594.92,-580.67 593.81,-554.33"/>
</g>
<!-- ezsgame_world&#45;&gt;ezsgame_graphics_sprites -->
<g id="edge70" class="edge">
<title>ezsgame_world&#45;&gt;ezsgame_graphics_sprites</title><style>.edge>path:hover{stroke-width:8}</style>
<path fill="none" stroke="black" d="M859.81,-821.55C874.1,-707.46 884.44,-572.06 889.08,-505.58"/>
<polygon fill="#0606ef" stroke="black" points="892.63,-505.97 889.83,-495.76 885.65,-505.49 892.63,-505.97"/>
<path fill="none" stroke="black" d="M809.81,-919.78C837.53,-880.35 851.17,-870.97 859.81,-823.55"/>
</g>
<!-- ezsgame_world&#45;&gt;ezsgame_mouse -->
<g id="edge71" class="edge">
<title>ezsgame_world&#45;&gt;ezsgame_mouse</title><style>.edge>path:hover{stroke-width:8}</style>
<path fill="none" stroke="black" d="M487.44,-1079.46C577.65,-1065.94 781.62,-1035.38 882.32,-1020.28"/>
<polygon fill="#0606ef" stroke="black" points="882.82,-1023.6 892.2,-1018.65 881.79,-1016.68 882.82,-1023.6"/>
</g>
<!-- ezsgame_world&#45;&gt;ezsgame_objects_geometric -->
<g id="edge72" class="edge">
<title>ezsgame_world&#45;&gt;ezsgame_objects_geometric</title><style>.edge>path:hover{stroke-width:8}</style>
<path fill="none" stroke="black" d="M442.81,-1009.52C462.21,-911.56 385.05,-808.58 339.35,-757.7"/>
<polygon fill="#0606ef" stroke="black" points="342.37,-755.72 333.04,-750.7 337.2,-760.44 342.37,-755.72"/>
<path fill="none" stroke="black" d="M440.47,-1068.96C438.93,-1053.65 437.99,-1030.75 442.81,-1011.52"/>
</g>
<!-- ezsgame_world&#45;&gt;ezsgame_objects_object -->
<g id="edge73" class="edge">
<title>ezsgame_world&#45;&gt;ezsgame_objects_object</title><style>.edge>path:hover{stroke-width:8}</style>
<path fill="none" stroke="black" d="M404.42,-1075.62C375.1,-1065.04 338.04,-1045.35 327.81,-1011.52"/>
</g>
<!-- ezsgame_world&#45;&gt;ezsgame_objects_text -->
<g id="edge74" class="edge">
<title>ezsgame_world&#45;&gt;ezsgame_objects_text</title><style>.edge>path:hover{stroke-width:8}</style>
<path fill="none" stroke="black" d="M479.81,-919.78C479.36,-865.95 467.38,-804.84 458.21,-765.73"/>
<polygon fill="#0606ef" stroke="black" points="461.38,-764.97 455.65,-756.06 454.58,-766.6 461.38,-764.97"/>
<path fill="none" stroke="black" d="M442.81,-1009.52C451.03,-968 482.31,-964.03 479.81,-921.78"/>
</g>
<!-- ezsgame_world&#45;&gt;ezsgame_scenes -->
<g id="edge75" class="edge">
<title>ezsgame_world&#45;&gt;ezsgame_scenes</title><style>.edge>path:hover{stroke-width:8}</style>
<path fill="none" stroke="black" d="M783.81,-821.55C772.93,-737.9 821.81,-719.95 821.81,-635.59 821.81,-635.59 821.81,-635.59 821.81,-552.33 821.81,-498.4 818.55,-481.6 840.81,-432.48 847.8,-417.05 859.4,-402.31 870.15,-390.68"/>
<polygon fill="#0606ef" stroke="black" points="872.33,-393.43 876.75,-383.8 867.29,-388.57 872.33,-393.43"/>
</g>
<!-- ezsgame_world&#45;&gt;ezsgame_utilities_controller -->
<g id="edge76" class="edge">
<title>ezsgame_world&#45;&gt;ezsgame_utilities_controller</title><style>.edge>path:hover{stroke-width:8}</style>
<path fill="none" stroke="black" d="M442.81,-1009.52C451.13,-976.34 474.83,-980.34 493.81,-951.89 528.97,-899.2 555.81,-886.9 555.81,-823.55 555.81,-823.55 555.81,-823.55 555.81,-633.59 555.81,-585.3 486.63,-464.43 449.59,-403.18"/>
<polygon fill="#0606ef" stroke="black" points="452.13,-401.61 443.94,-394.88 446.15,-405.25 452.13,-401.61"/>
</g>
<!-- ezsgame_world&#45;&gt;ezsgame_window -->
<g id="edge77" class="edge">
<title>ezsgame_world&#45;&gt;ezsgame_window</title><style>.edge>path:hover{stroke-width:8}</style>
<path fill="none" stroke="black" d="M813.81,-364.37C814.02,-340.05 829.48,-317.06 844.1,-300.72"/>
<polygon fill="#0606ef" stroke="black" points="846.25,-303.47 850.58,-293.8 841.17,-298.66 846.25,-303.47"/>
<path fill="none" stroke="black" d="M745.81,-723.33C730.99,-643.95 813.13,-447.12 813.81,-366.37"/>
</g>
</g>
</svg>
